<svg xmlns="http://www.w3.org/2000/svg" width="200.16" height="139.363" viewBox="0 0 200.16 139.363">
  <g id="Group_38733" data-name="Group 38733" transform="translate(236.728 -1235.957)">
    <g id="Group_38109" data-name="Group 38109" transform="translate(302.279 1881.649)">
      <path id="Path_71" data-name="Path 71" d="M-424.411-620.573c2.606-.032,2.122-1.668,1.554-3.284A33.638,33.638,0,0,0-437.6-642.139a39.273,39.273,0,0,0-7.566-3.355c-1.8-.61-3.024.194-2.314,2.353,3.646,11.083,11.1,18.441,22.041,22.358A7.78,7.78,0,0,0-424.411-620.573Z" transform="translate(-17.234)" fill="#d10f96"/>
      <path id="Path_72" data-name="Path 72" d="M-379.2-643.838a2.517,2.517,0,0,0-1.43-1.443,2.517,2.517,0,0,0-2.03.083,72.155,72.155,0,0,0-6.61,3.344A33.072,33.072,0,0,0-403.7-623.713c-.278.817-.468,2.122-.034,2.6a2.966,2.966,0,0,0,2.6.359c10.987-3.846,18.422-11.27,22-22.37A1.123,1.123,0,0,0-379.2-643.838Z" transform="translate(-34.617 -0.088)" fill="#ff5459"/>
      <path id="Path_73" data-name="Path 73" d="M-358.995-556.924c.662.2,1.39.373,2.086.638a34.26,34.26,0,0,1,20.722,20.811,11.959,11.959,0,0,1,.259,3.322c-1.19-.032-2.5.246-3.554-.146a33.778,33.778,0,0,1-20.857-21.042C-361.248-555.846-360.787-556.935-358.995-556.924Z" transform="translate(-51.802 -35.312)" fill="#ff5459"/>
      <path id="Path_74" data-name="Path 74" d="M-446.449-557.307c1.039.308,1.24.386,1.448.428,9.047,1.811,21.03,13.75,22.627,22.541.358,1.972-.31,2.839-2.412,2.428-8.9-1.742-20.765-13.571-22.5-22.631C-447.449-555.385-446.745-556.394-446.449-557.307Z" transform="translate(-17.384 -35.16)" fill="#ff5459"/>
      <path id="Path_75" data-name="Path 75" d="M-422.107-599.2c-.249.8-.453,1.625-.761,2.411a34.085,34.085,0,0,1-20.705,20.367,12.094,12.094,0,0,1-3.31.251c-.006-1.089-.323-2.29.029-3.248A34.055,34.055,0,0,1-425.7-600.559C-424.256-601.088-422.514-601.879-422.107-599.2Z" transform="translate(-17.5 -17.742)" fill="#ff5459"/>
      <path id="Path_76" data-name="Path 76" d="M-401.476-600.854c1.47.645,3.375,1.351,5.16,2.284a33.745,33.745,0,0,1,16.875,19.587c.281.82.485,2.1.056,2.608a2.929,2.929,0,0,1-2.568.32c-11.014-3.783-18.359-11.252-22.137-22.244C-404.81-600.4-403.888-601.056-401.476-600.854Z" transform="translate(-34.483 -17.824)" fill="#ff5459"/>
      <path id="Path_77" data-name="Path 77" d="M-357.58-576.02a2.18,2.18,0,0,1-1.783-.165,2.179,2.179,0,0,1-1.058-1.445,1.371,1.371,0,0,1,.032-.827,57.421,57.421,0,0,1,4.889-9.609,32.091,32.091,0,0,1,16.9-12.469,3.174,3.174,0,0,1,2.621.151c.467.448.427,1.8.149,2.592-3.766,10.7-11.044,17.95-21.74,21.769Z" transform="translate(-51.929 -17.883)" fill="#ff5459"/>
      <path id="Path_78" data-name="Path 78" d="M-465.311-554.365c-1.5,2.922-2.779,5.987-4.545,8.739a32.772,32.772,0,0,1-17.344,13.49,11.269,11.269,0,0,1-3.025.186c-.046-1.007-.406-2.126-.09-3,3.813-10.57,10.989-17.834,21.672-21.5C-466.233-557.285-465.453-556.694-465.311-554.365Z" transform="translate(-0.226 -35.357)" fill="#ff5459"/>
      <path id="Path_79" data-name="Path 79" d="M-424.411-512.766c2.606.032,2.122,1.668,1.554,3.284A33.638,33.638,0,0,1-437.6-491.2a39.2,39.2,0,0,1-7.566,3.355c-1.8.61-3.024-.194-2.314-2.353,3.646-11.082,11.1-18.441,22.041-22.357A7.77,7.77,0,0,1-424.411-512.766Z" transform="translate(-17.234 -52.878)" fill="#ff5459"/>
      <path id="Path_80" data-name="Path 80" d="M-379.2-489.326a2.517,2.517,0,0,1-1.43,1.443,2.517,2.517,0,0,1-2.03-.083,71.98,71.98,0,0,1-6.61-3.345,33.071,33.071,0,0,1-14.434-18.14c-.278-.817-.468-2.122-.034-2.6a2.966,2.966,0,0,1,2.6-.358c10.987,3.845,18.422,11.269,22,22.369A1.123,1.123,0,0,1-379.2-489.326Z" transform="translate(-34.617 -52.965)" fill="#ff5459"/>
      <path id="Path_81" data-name="Path 81" d="M-465.831-577.562c-.121,2.463-1.749,1.87-3.174,1.39a31.365,31.365,0,0,1-15.71-11.053,59.4,59.4,0,0,1-5.929-10.854c-1.019-2.269.165-3.465,2.46-2.68,11,3.765,18.427,11.16,22.173,22.187A7.055,7.055,0,0,1-465.831-577.562Z" transform="translate(0 -17.78)" fill="#ff5459"/>
      <path id="Path_82" data-name="Path 82" d="M-380.711-556.783c2.061.162,1.923,1.417,1.348,3.078A34.178,34.178,0,0,1-395.9-534.234a31.911,31.911,0,0,1-5.884,2.439c-1.664.508-2.694-.128-2.307-2.162,1.693-8.9,13.539-20.789,22.552-22.6C-381.335-556.6-381.131-556.667-380.711-556.783Z" transform="translate(-34.544 -35.368)" fill="#d10f96"/>
    </g>
    <path id="Path_2750" data-name="Path 2750" d="M-91.68-.032a.61.61,0,0,0,.544.352h.32a.61.61,0,0,0,.544-.352l10.048-21.536a.565.565,0,0,0-.544-.832h-4.256a.627.627,0,0,0-.544.352l-5.28,11.68h-.192l-5.28-11.68a.627.627,0,0,0-.544-.352h-4.256a.565.565,0,0,0-.544.832ZM-77.6-.608A.629.629,0,0,0-76.992,0h3.84a.629.629,0,0,0,.608-.608V-21.792a.629.629,0,0,0-.608-.608h-3.84a.629.629,0,0,0-.608.608Zm10.56,0A.608.608,0,0,0-66.432,0H-58.5c3.808,0,6.976-2.592,6.976-6.176,0-2.944-2.592-4.512-4.288-5.216,1.5-.8,3.712-2.592,3.712-5.056,0-3.36-3.1-5.952-6.88-5.952h-7.456a.608.608,0,0,0-.608.608Zm4.992-12.7v-4.48h2.5a2.172,2.172,0,0,1,2.24,2.176,2.282,2.282,0,0,1-2.24,2.3Zm0,8.736V-9.152h2.592a2.558,2.558,0,0,1,2.624,2.24,2.322,2.322,0,0,1-2.3,2.336ZM-47.456-.608A.608.608,0,0,0-46.848,0H-33.6a.608.608,0,0,0,.608-.608V-4.1A.608.608,0,0,0-33.6-4.7h-8.864v-4.32h7.3a.608.608,0,0,0,.608-.608V-13.12a.629.629,0,0,0-.608-.608h-7.3V-17.7H-33.6a.608.608,0,0,0,.608-.608v-3.488A.608.608,0,0,0-33.6-22.4H-46.848a.608.608,0,0,0-.608.608Zm17.472-10.56A11.465,11.465,0,0,0-18.464.32a15.992,15.992,0,0,0,7.936-2.112.79.79,0,0,0,.256-.512c0-2.56-.032-5.184-.032-7.744a.6.6,0,0,0-.576-.608H-16.7a.588.588,0,0,0-.608.608v1.856a.581.581,0,0,0,.608.576h3.136v3.584a11.264,11.264,0,0,1-4.8,1.088A8.175,8.175,0,0,1-26.4-11.232a8.183,8.183,0,0,1,8.032-8.32,8.524,8.524,0,0,1,5.44,2.176c.32.288.576.32.832.032.48-.512.96-.992,1.44-1.5a.62.62,0,0,0-.032-.9,11.634,11.634,0,0,0-7.776-2.976A11.52,11.52,0,0,0-29.984-11.168ZM-7.712,0H-5.7A.8.8,0,0,0-4.96-.48c.64-1.472,1.312-2.912,1.952-4.384H7.456L9.44-.48a.746.746,0,0,0,.736.48h2.016a.565.565,0,0,0,.544-.832L2.976-22.368a.749.749,0,0,0-.544-.352h-.32a.749.749,0,0,0-.544.352L-8.256-.832A.565.565,0,0,0-7.712,0ZM-1.76-7.616l3.9-8.768H2.3L6.24-7.616Zm17.7,7.008A.608.608,0,0,0,16.544,0h2.08a.629.629,0,0,0,.608-.608v-8.16h4.832L28.32-.288A.589.589,0,0,0,28.832,0h2.5a.605.605,0,0,0,.544-.928L27.488-9.056a7.1,7.1,0,0,0,4.736-6.5A6.9,6.9,0,0,0,25.248-22.4h-8.7a.608.608,0,0,0-.608.608ZM19.3-11.52V-19.3h5.7a3.922,3.922,0,0,1,3.9,3.808,3.975,3.975,0,0,1-3.9,3.968ZM37.216-.608A.6.6,0,0,0,37.792,0h7.36A11.246,11.246,0,0,0,56.384-11.232,11.233,11.233,0,0,0,45.152-22.4h-7.36a.6.6,0,0,0-.576.608ZM40.48-3.04V-19.36H44.7a7.868,7.868,0,0,1,8.128,8.128A7.9,7.9,0,0,1,44.7-3.04ZM60.992-.608A.608.608,0,0,0,61.6,0H74.4a.608.608,0,0,0,.608-.608v-1.76a.608.608,0,0,0-.608-.608H64.288v-6.88h8.544a.608.608,0,0,0,.608-.608v-1.792a.629.629,0,0,0-.608-.608H64.288v-6.528H74.4A.608.608,0,0,0,75.008-20v-1.792A.608.608,0,0,0,74.4-22.4H61.6a.608.608,0,0,0-.608.608Zm18.848,0A.629.629,0,0,0,80.448,0h2.016a.608.608,0,0,0,.608-.608V-16.192H83.1L96.992.32h.832a.6.6,0,0,0,.608-.576V-21.792a.629.629,0,0,0-.608-.608H95.776a.608.608,0,0,0-.608.608V-6.656h-.032L81.248-22.72h-.8a.6.6,0,0,0-.608.576Z" transform="translate(-135 1375)" fill="#fff"/>
  </g>
</svg>
